<!DOCTYPE svg PUBLIC "-//W3C//DTD SVG 1.1//EN" "https://www.w3.org/Graphics/SVG/1.1/DTD/svg11.dtd"><svg xmlns="http://www.w3.org/2000/svg" aria-label="Graph view" width="565" height="1010"><g transform="translate(12,19.271902084350586)"><g class="nodes"><g class="node-container" transform="translate(266.9555206298828,18.63636302947998)"><g class="node anchor"><circle class="shape" x="-15.908265113830566" y="-8.63636302947998" r="25.908265113830566"/><text class="label"><tspan xml:space="preserve" text-anchor="middle" alignment-baseline="central">Start</tspan></text></g></g><g class="node-container" transform="translate(266.9555206298828,955.9090662002563)"><g class="node anchor"><circle class="shape" x="-12.173295021057129" y="-8.63636302947998" r="22.17329502105713"/><text class="label"><tspan xml:space="preserve" text-anchor="middle" alignment-baseline="central">End</tspan></text></g></g><g class="node-container" transform="translate(266.9555206298828,255.45453453063965)"><g class="node state Parallel Container" aria-label="State Parallel" data-virtual-tab-id="132" tabindex="0" transform="translate(-266.9555206298828,-153.1818084716797)"><rect class="shape" rx="5" ry="5" x="0" y="0" width="533.9110412597656" height="366.3636169433594" transform="translate(0,-20)"/><g class="branches" transform="translate(20,40)"><g class="branch" transform="translate(0,0)"><g class="nodes"><g class="node-container" transform="translate(107.86883544921875,18.63636302947998)"><g class="node state Task" aria-label="State Lambda Invoke 1" data-virtual-tab-id="133" tabindex="-1" transform="translate(-8)"><rect class="shape step-status" rx="5" ry="5" x="-64.08380508422852" y="-18.63636302947998" width="144.16761016845703" height="37.27272605895996"/><text class="label" xml:space="preserve" text-anchor="middle" alignment-baseline="central">Lambda Invoke 1</text><svg class="icon" width="16" height="16" x="59.083805084228516" y="-8"/></g></g><g class="node-container" transform="translate(107.86883544921875,80.90908908843994)"><g class="node state Task" aria-label="State Lambda Invoke 2" data-virtual-tab-id="134" tabindex="-1" transform="translate(-8)"><rect class="shape step-status" rx="5" ry="5" x="-64.08380508422852" y="-18.63636302947998" width="144.16761016845703" height="37.27272605895996"/><text class="label" xml:space="preserve" text-anchor="middle" alignment-baseline="central">Lambda Invoke 2</text><svg class="icon" width="16" height="16" x="59.083805084228516" y="-8"/></g></g><g class="node-container" transform="translate(107.86883544921875,143.1818151473999)"><g class="node state Task" aria-label="State Lambda Invoke 3" data-virtual-tab-id="135" tabindex="-1" transform="translate(-8)"><rect class="shape step-status" rx="5" ry="5" x="-64.08380508422852" y="-18.63636302947998" width="144.16761016845703" height="37.27272605895996"/><text class="label" xml:space="preserve" text-anchor="middle" alignment-baseline="central">Lambda Invoke 3</text><svg class="icon" width="16" height="16" x="59.083805084228516" y="-8"/></g></g><g class="node-container" transform="translate(107.86883544921875,205.45454120635986)"><g class="node state Task" aria-label="State Lambda Invoke 4" data-virtual-tab-id="136" tabindex="-1" transform="translate(-8)"><rect class="shape step-status" rx="5" ry="5" x="-64.08380508422852" y="-18.63636302947998" width="144.16761016845703" height="37.27272605895996"/><text class="label" xml:space="preserve" text-anchor="middle" alignment-baseline="central">Lambda Invoke 4</text><svg class="icon" width="16" height="16" x="59.083805084228516" y="-8"/></g></g><g class="node-container" transform="translate(107.86883544921875,267.7272672653198)"><g class="node state Task" aria-label="State StartJobRun curated mongo" data-virtual-tab-id="137" tabindex="-1" transform="translate(-8)"><rect class="shape step-status" rx="5" ry="5" x="-99.86883544921875" y="-18.63636302947998" width="215.7376708984375" height="37.27272605895996"/><text class="label" xml:space="preserve" text-anchor="middle" alignment-baseline="central">StartJobRun curated mongo</text><svg class="icon" width="16" height="16" x="94.86883544921875" y="-8"/></g></g></g><g class="edges"><g class="edge"><path class="path" marker-end="url(#arrowhead152)" d="M107.869,37.273L107.869,39.356C107.869,41.439,107.869,45.606,107.869,49.773C107.869,53.939,107.869,58.106,107.869,60.189L107.869,62.273" style="fill: none;"/><defs><marker id="arrowhead152" viewBox="0 0 10 10" refX="9" refY="5" markerUnits="strokeWidth" markerWidth="8" markerHeight="6" orient="auto"><path d="M 0 0 L 10 5 L 0 10 z"/></marker></defs></g><g class="edge"><path class="path" marker-end="url(#arrowhead153)" d="M107.869,99.545L107.869,101.629C107.869,103.712,107.869,107.879,107.869,112.045C107.869,116.212,107.869,120.379,107.869,122.462L107.869,124.545" style="fill: none;"/><defs><marker id="arrowhead153" viewBox="0 0 10 10" refX="9" refY="5" markerUnits="strokeWidth" markerWidth="8" markerHeight="6" orient="auto"><path d="M 0 0 L 10 5 L 0 10 z"/></marker></defs></g><g class="edge"><path class="path" marker-end="url(#arrowhead154)" d="M107.869,161.818L107.869,163.902C107.869,165.985,107.869,170.152,107.869,174.318C107.869,178.485,107.869,182.652,107.869,184.735L107.869,186.818" style="fill: none;"/><defs><marker id="arrowhead154" viewBox="0 0 10 10" refX="9" refY="5" markerUnits="strokeWidth" markerWidth="8" markerHeight="6" orient="auto"><path d="M 0 0 L 10 5 L 0 10 z"/></marker></defs></g><g class="edge"><path class="path" marker-end="url(#arrowhead155)" d="M107.869,224.091L107.869,226.174C107.869,228.258,107.869,232.424,107.869,236.591C107.869,240.758,107.869,244.924,107.869,247.008L107.869,249.091" style="fill: none;"/><defs><marker id="arrowhead155" viewBox="0 0 10 10" refX="9" refY="5" markerUnits="strokeWidth" markerWidth="8" markerHeight="6" orient="auto"><path d="M 0 0 L 10 5 L 0 10 z"/></marker></defs></g></g></g><g class="branch" transform="translate(235.7376708984375,0)"><g class="nodes"><g class="node-container" transform="translate(129.08670806884766,18.63636302947998)"><g class="node state Task" aria-label="State Glue StartJobRun curated postgres" data-virtual-tab-id="138" tabindex="-1" transform="translate(-8)"><rect class="shape step-status" rx="5" ry="5" x="-121.08670806884766" y="-18.63636302947998" width="258.1734161376953" height="37.27272605895996"/><text class="label" xml:space="preserve" text-anchor="middle" alignment-baseline="central">Glue StartJobRun curated postgres</text><svg class="icon" width="16" height="16" x="116.08670806884766" y="-8"/></g></g></g><g class="edges"/></g></g><g class="title node state" transform="translate(246.9555206298828,-40)"><rect class="shape step-status" rx="5" ry="5" x="0" y="0" width="92.56818008422852" height="40" transform="translate(-26.284090042114258)"/><text class="label" xml:space="preserve" text-anchor="middle" alignment-baseline="central" font-weight="600" x="40" y="10" transform="translate(-28)">Parallel</text><text class="desciption" xml:space="preserve" text-anchor="middle" alignment-baseline="central" x="40" y="30" transform="translate(-20)"/><svg class="icon" width="16" height="16" xml:space="preserve" text-anchor="middle" alignment-baseline="central" x="45.28409004211426" y="3"/></g><path class="path" marker-end="url(#arrowhead156)" d="M266.956,0L266.956,3.333C266.956,6.667,266.956,13.333,243.774,16.667C220.593,20,174.231,20,151.05,23.333C127.869,26.667,127.869,33.333,127.869,36.667L127.869,40" style="fill: none;"/><defs><marker id="arrowhead156" viewBox="0 0 10 10" refX="9" refY="5" markerUnits="strokeWidth" markerWidth="8" markerHeight="6" orient="auto"><path d="M 0 0 L 10 5 L 0 10 z"/></marker></defs><path class="path" marker-end="url(#arrowhead157)" d="M266.956,0L266.956,3.333C266.956,6.667,266.956,13.333,286.6,16.667C306.245,20,345.535,20,365.18,23.333C384.824,26.667,384.824,33.333,384.824,36.667L384.824,40" style="fill: none;"/><defs><marker id="arrowhead157" viewBox="0 0 10 10" refX="9" refY="5" markerUnits="strokeWidth" markerWidth="8" markerHeight="6" orient="auto"><path d="M 0 0 L 10 5 L 0 10 z"/></marker></defs></g></g><g class="node-container" transform="translate(266.9555206298828,492.2727060317993)"><g class="node state Choice" aria-label="State Progress choice" data-virtual-tab-id="139" tabindex="-1" transform="translate(-8)"><rect class="shape step-status" rx="5" ry="5" x="-59.005680084228516" y="-18.63636302947998" width="134.01136016845703" height="37.27272605895996"/><text class="label" xml:space="preserve" text-anchor="middle" alignment-baseline="central">Progress choice</text><svg class="icon" width="16" height="16" x="54.005680084228516" y="-8"/></g></g><g class="node-container" transform="translate(143.85932159423828,755.2272491455078)"><g class="node state Task" aria-label="State SNS Publish" data-virtual-tab-id="140" tabindex="-1" transform="translate(-8)"><rect class="shape step-status" rx="5" ry="5" x="-48.10369110107422" y="-18.63636302947998" width="112.20738220214844" height="37.27272605895996"/><text class="label" xml:space="preserve" text-anchor="middle" alignment-baseline="central">SNS Publish</text><svg class="icon" width="16" height="16" x="43.10369110107422" y="-8"/></g></g><g class="node-container" transform="translate(390.05171966552734,554.5454320907593)"><g class="node state Task" aria-label="State StartJobRun analytics mongo" data-virtual-tab-id="141" tabindex="-1" transform="translate(-8)"><rect class="shape step-status" rx="5" ry="5" x="-103.74681854248047" y="-18.63636302947998" width="223.49363708496094" height="37.27272605895996"/><text class="label" xml:space="preserve" text-anchor="middle" alignment-baseline="central">StartJobRun analytics mongo</text><svg class="icon" width="16" height="16" x="98.74681854248047" y="-8"/></g></g><g class="node-container" transform="translate(390.05171966552734,616.8181581497192)"><g class="node state Task" aria-label="State ListDataSets" data-virtual-tab-id="142" tabindex="-1" transform="translate(-8)"><rect class="shape step-status" rx="5" ry="5" x="-49.602783203125" y="-18.63636302947998" width="115.20556640625" height="37.27272605895996"/><text class="label" xml:space="preserve" text-anchor="middle" alignment-baseline="central">ListDataSets</text><svg class="icon" width="16" height="16" x="44.602783203125" y="-8"/></g></g><g class="node-container" transform="translate(390.05171966552734,755.2272491455078)"><g class="node state Map Container" aria-label="State Map" data-virtual-tab-id="143" tabindex="-1" transform="translate(-140.08870697021484,-94.7727279663086)"><rect class="shape" rx="5" ry="5" width="300.1774139404297" height="179.5454559326172" transform="translate(-14,6)"/><rect class="shape" rx="5" ry="5" width="300.1774139404297" height="179.5454559326172" transform="translate(-12,8)"/><rect class="shape" rx="5" ry="5" width="300.1774139404297" height="179.5454559326172" transform="translate(-10,10)"/><g class="branches" transform="translate(20,70)"><g class="branch" transform="translate(0, 0)"><g class="nodes"><g class="node-container" transform="translate(138.10828018188477,18.63636302947998)"><g class="node state Choice" aria-label="State SPICE Choice" data-virtual-tab-id="144" tabindex="-1" transform="translate(-8)"><rect class="shape step-status" rx="5" ry="5" x="-51.18607711791992" y="-18.63636302947998" width="118.37215423583984" height="37.27272605895996"/><text class="label" xml:space="preserve" text-anchor="middle" alignment-baseline="central">SPICE Choice</text><svg class="icon" width="16" height="16" x="46.18607711791992" y="-8"/></g></g><g class="node-container" transform="translate(68.06391906738281,80.90908908843994)"><g class="node state Task" aria-label="State CreateIngestion" data-virtual-tab-id="145" tabindex="-1" transform="translate(-8)"><rect class="shape step-status" rx="5" ry="5" x="-60.06391906738281" y="-18.63636302947998" width="136.12783813476562" height="37.27272605895996"/><text class="label" xml:space="preserve" text-anchor="middle" alignment-baseline="central">CreateIngestion</text><svg class="icon" width="16" height="16" x="55.06391906738281" y="-8"/></g></g><g class="node-container" transform="translate(208.15264129638672,80.90908908843994)"><g class="node state Pass" aria-label="State Pass" data-virtual-tab-id="146" tabindex="-1" transform="translate(-8)"><rect class="shape step-status" rx="5" ry="5" x="-24.024803161621094" y="-18.63636302947998" width="64.04960632324219" height="37.27272605895996"/><text class="label" xml:space="preserve" text-anchor="middle" alignment-baseline="central">Pass</text><svg class="icon" width="16" height="16" x="19.024803161621094" y="-8"/></g></g></g><g class="edges"><g class="edge"><path class="path" marker-end="url(#arrowhead158)" d="M96.184,37.273L91.497,39.356C86.811,41.439,77.437,45.606,72.751,49.773C68.064,53.939,68.064,58.106,68.064,60.189L68.064,62.273" style="fill: none;"/><defs><marker id="arrowhead158" viewBox="0 0 10 10" refX="9" refY="5" markerUnits="strokeWidth" markerWidth="8" markerHeight="6" orient="auto"><path d="M 0 0 L 10 5 L 0 10 z"/></marker></defs></g><g class="edge"><path class="path" marker-end="url(#arrowhead159)" d="M180.033,37.273L184.719,39.356C189.406,41.439,198.779,45.606,203.466,49.773C208.153,53.939,208.153,58.106,208.153,60.189L208.153,62.273" style="fill: none;"/><defs><marker id="arrowhead159" viewBox="0 0 10 10" refX="9" refY="5" markerUnits="strokeWidth" markerWidth="8" markerHeight="6" orient="auto"><path d="M 0 0 L 10 5 L 0 10 z"/></marker></defs></g></g></g></g><path class="path" marker-end="url(#arrowhead160)" d="M140.089,0L140.089,1.667C140.089,3.333,140.089,6.667,143.092,12.5C146.095,18.333,152.102,26.667,155.105,36.667C158.108,46.667,158.108,58.333,158.108,64.167L158.108,70" style="fill: none;"/><defs><marker id="arrowhead160" viewBox="0 0 10 10" refX="9" refY="5" markerUnits="strokeWidth" markerWidth="8" markerHeight="6" orient="auto"><path d="M 0 0 L 10 5 L 0 10 z"/></marker></defs><g class="title node state"><rect class="shape step-status" rx="5" ry="5" x="0" y="0" width="280.1774139404297" height="40" transform="translate(0)"/><text class="label" xml:space="preserve" text-anchor="middle" alignment-baseline="central" font-weight="600" x="280.1774139404297" y="10" transform="translate(-148.08870697021484)">Map</text><text class="desciption" xml:space="preserve" text-anchor="middle" alignment-baseline="central" x="280.1774139404297" y="30" transform="translate(-140.08870697021484)"/><svg class="icon" width="16" height="16" xml:space="preserve" text-anchor="middle" alignment-baseline="central" x="154.26484298706055" y="3"/></g></g></g><g class="node-container" transform="translate(390.05171966552734,893.6363401412964)"><g class="node state Task" aria-label="State StartExecution coldStart" data-virtual-tab-id="147" tabindex="-1" transform="translate(-8)"><rect class="shape step-status" rx="5" ry="5" x="-87.7322006225586" y="-18.63636302947998" width="191.4644012451172" height="37.27272605895996"/><text class="label" xml:space="preserve" text-anchor="middle" alignment-baseline="central">StartExecution coldStart</text><svg class="icon" width="16" height="16" x="82.7322006225586" y="-8"/></g></g><g class="node-container" transform="translate(143.85932159423828,893.6363401412964)"><g class="node state Task" aria-label="State UpdateSchedule" data-virtual-tab-id="148" tabindex="-1" transform="translate(-8)"><rect class="shape step-status" rx="5" ry="5" x="-62.180397033691406" y="-18.63636302947998" width="140.3607940673828" height="37.27272605895996"/><text class="label" xml:space="preserve" text-anchor="middle" alignment-baseline="central">UpdateSchedule</text><svg class="icon" width="16" height="16" x="57.180397033691406" y="-8"/></g></g></g><g class="edges"><g class="edge"><path class="path" marker-end="url(#arrowhead161)" d="M266.956,448.636L266.956,450.72C266.956,452.803,266.956,456.97,266.956,461.136C266.956,465.303,266.956,469.47,266.956,471.553L266.956,473.636" style="fill: none;"/><defs><marker id="arrowhead161" viewBox="0 0 10 10" refX="9" refY="5" markerUnits="strokeWidth" markerWidth="8" markerHeight="6" orient="auto"><path d="M 0 0 L 10 5 L 0 10 z"/></marker></defs></g><g class="edge"><path class="path" marker-end="url(#arrowhead162)" d="M266.956,44.545L266.956,45.416C266.956,46.287,266.956,48.03,266.956,50.985C266.956,53.939,266.956,58.106,266.956,60.189L266.956,62.273" style="fill: none;"/></g><g class="edge"><path class="path" marker-end="url(#arrowhead163)" d="M199.95,509.221L190.601,511.586C181.253,513.951,162.556,518.68,153.208,526.234C143.859,533.788,143.859,544.167,143.859,554.545C143.859,564.924,143.859,575.303,143.859,585.682C143.859,596.061,143.859,606.439,143.859,616.818C143.859,627.197,143.859,637.576,143.859,657.538C143.859,677.5,143.859,707.045,143.859,721.818L143.859,736.591" style="fill: none;"/><defs><marker id="arrowhead163" viewBox="0 0 10 10" refX="9" refY="5" markerUnits="strokeWidth" markerWidth="8" markerHeight="6" orient="auto"><path d="M 0 0 L 10 5 L 0 10 z"/></marker></defs></g><g class="edge"><path class="path" marker-end="url(#arrowhead164)" d="M333.961,509.221L343.31,511.586C352.658,513.951,371.355,518.68,380.703,523.128C390.052,527.576,390.052,531.742,390.052,533.826L390.052,535.909" style="fill: none;"/><defs><marker id="arrowhead164" viewBox="0 0 10 10" refX="9" refY="5" markerUnits="strokeWidth" markerWidth="8" markerHeight="6" orient="auto"><path d="M 0 0 L 10 5 L 0 10 z"/></marker></defs></g><g class="edge"><path class="path" marker-end="url(#arrowhead165)" d="M390.052,573.182L390.052,575.265C390.052,577.348,390.052,581.515,390.052,585.682C390.052,589.848,390.052,594.015,390.052,596.098L390.052,598.182" style="fill: none;"/><defs><marker id="arrowhead165" viewBox="0 0 10 10" refX="9" refY="5" markerUnits="strokeWidth" markerWidth="8" markerHeight="6" orient="auto"><path d="M 0 0 L 10 5 L 0 10 z"/></marker></defs></g><g class="edge"><path class="path" marker-end="url(#arrowhead166)" d="M390.052,635.455L390.052,637.538C390.052,639.621,390.052,643.788,390.052,647.955C390.052,652.121,390.052,656.288,390.052,658.371L390.052,660.455" style="fill: none;"/></g><g class="edge"><path class="path" marker-end="url(#arrowhead167)" d="M390.052,850L390.052,852.083C390.052,854.167,390.052,858.333,390.052,862.5C390.052,866.667,390.052,870.833,390.052,872.917L390.052,875" style="fill: none;"/><defs><marker id="arrowhead167" viewBox="0 0 10 10" refX="9" refY="5" markerUnits="strokeWidth" markerWidth="8" markerHeight="6" orient="auto"><path d="M 0 0 L 10 5 L 0 10 z"/></marker></defs></g><g class="edge"><path class="path" marker-end="url(#arrowhead168)" d="M143.859,773.864L143.859,788.636C143.859,803.409,143.859,832.955,143.859,849.811C143.859,866.667,143.859,870.833,143.859,872.917L143.859,875" style="fill: none;"/><defs><marker id="arrowhead168" viewBox="0 0 10 10" refX="9" refY="5" markerUnits="strokeWidth" markerWidth="8" markerHeight="6" orient="auto"><path d="M 0 0 L 10 5 L 0 10 z"/></marker></defs></g><g class="edge"><path class="path" marker-end="url(#arrowhead169)" d="M143.859,912.273L143.859,914.356C143.859,916.439,143.859,920.606,160.793,926.973C177.726,933.339,211.593,941.905,228.526,946.189L245.459,950.472" style="fill: none;"/><defs><marker id="arrowhead169" viewBox="0 0 10 10" refX="9" refY="5" markerUnits="strokeWidth" markerWidth="8" markerHeight="6" orient="auto"><path d="M 0 0 L 10 5 L 0 10 z"/></marker></defs></g><g class="edge"><path class="path" marker-end="url(#arrowhead170)" d="M390.052,912.273L390.052,914.356C390.052,916.439,390.052,920.606,373.118,926.973C356.185,933.339,322.318,941.905,305.385,946.189L288.452,950.472" style="fill: none;"/><defs><marker id="arrowhead170" viewBox="0 0 10 10" refX="9" refY="5" markerUnits="strokeWidth" markerWidth="8" markerHeight="6" orient="auto"><path d="M 0 0 L 10 5 L 0 10 z"/></marker></defs></g></g></g><style xmlns="http://www.w3.org/1999/xhtml">
  .link &gt; rect {
    fill: #0073BB;
  }

  .link .label {
    fill: #FFFFFF;
  }

  .node &gt; .shape {
    stroke: #555555;
    stroke-width: 0.6px;
    fill: #FFFFFF;
  }

  path {
    stroke: #555;
    background-color: #555;
    stroke-width: 1px;
  }

  .node.state.NotYetStarted &gt; .shape,
  .node.state.Container &gt; .shape {
    stroke-dasharray: 5 2;
  }

  .node.state.FailedState &gt; .shape,
  rect.legend.FailedState {
    fill: #DE322F;
  }

  .node.state.CaughtErrorState &gt; .shape,
  rect.legend.CaughtErrorState {
    fill: #FFA500;
  }

  .node.state.SucceededState &gt; .shape,
  rect.legend.SucceededState {
    fill: #2BD62E;
  }

  .node.state.InProgressState &gt; .shape,
  rect.legend.InProgressState {
    fill: #53c9ed;
  }

  .node.state.CancelledState &gt; .shape,
  rect.legend.CancelledState {
    fill: #dddddd;
  }

  .node.anchor &gt; .shape {
    fill: #FFDA75;
  }

  .node.state.hovered:not(.selected):not(.NotYetStarted) &gt; .shape,
  .node.selected &gt; .shape {
    stroke: #555555;
    stroke-width: 2px;
  }

  .node.state.Container.Failed &gt; .shape {
    fill: #EE9592;
  }

  .node.state.Container.CaughtError &gt; .shape {
    fill: #FFD27F;
  }

  .node.state.Container.Succeeded &gt; .shape {
    fill: #91EA9A;
  }

  .node.state.Container.InProgress &gt; .shape {
    fill :#A9E4F7;
  }

  .node.state.Container.Cancelled &gt; .shape {
    fill: #EEEEEE;
  }

  marker {
    fill: #555555;
  }

  .node.anchor,
  .node.state.NotYetStarted {
    cursor: default;
  }

  .node.state {
    cursor: default;
  }

  tspan .label {
    font-weight: normal;
    font-size: 12px;
    text-shadow: none;
  }
</style></svg>